<svg id="Layer_1" data-name="Layer 1" xmlns="http://www.w3.org/2000/svg" viewBox="0 0 1535 362"><defs><style>.cls-1{fill:#073da3;}.cls-2{fill:#fff;}.cls-3{fill:#d32d27;}.cls-4{fill:none;}</style></defs><path class="cls-1" d="M195.22,142.85a83.24,83.24,0,0,0,19.89-53.69C215.11,40.25,171.62.61,118,.61S20.83,40.25,20.83,89.16a83,83,0,0,0,18.54,52c-23.48,23.61-38.25,57.85-38.25,96,0,71.26,51.65,121.21,115.37,121.21s115.37-49.95,115.37-121.21C231.86,199.93,217.76,166.4,195.22,142.85Z"/><path class="cls-2" d="M117.77,27.21C111.44,58.49,82.25,82.77,46,86.06c0,.13,0,.25,0,.38,0,35.54,31.57,64.34,70.52,64.34S187,122,187,86.44c0-.18,0-.36,0-.54C152,82.09,123.92,58.07,117.77,27.21Z"/><path class="cls-3" d="M117.77,27.21c-.34-1.68-.62-3.38-.83-5.1h-.45c-38.81,0-70.28,28.6-70.51,64C82.25,82.77,116.49,78.66,117.77,27.21Z"/><path class="cls-3" d="M118.6,22.15c-.2,1.71-.49,3.39-.83,5.06C118.6,80.3,152,82.09,187,85.9,186.67,51.26,156.37,23.17,118.6,22.15Z"/><path class="cls-3" d="M117.77,27.21c.34-1.67.63-3.35.83-5.06l-1.66,0C117.15,23.83,117.43,25.53,117.77,27.21Z"/><ellipse class="cls-4" cx="116.49" cy="235.95" rx="94.28" ry="108.72"/><ellipse class="cls-3" cx="118.6" cy="253.72" rx="81.33" ry="90.94"/><path class="cls-1" d="M1497.24,142.85a83.24,83.24,0,0,0,19.89-53.69c0-48.91-43.49-88.55-97.14-88.55s-97.14,39.64-97.14,88.55a83,83,0,0,0,18.54,52c-23.48,23.61-38.25,57.85-38.25,96,0,71.26,51.65,121.21,115.37,121.21s115.37-49.95,115.37-121.21C1533.88,199.93,1519.78,166.4,1497.24,142.85Z"/><path class="cls-2" d="M1419.79,27.21c-6.33,31.28-35.52,55.56-71.79,58.85,0,.13,0,.25,0,.38,0,35.54,31.57,64.34,70.52,64.34S1489,122,1489,86.44c0-.18,0-.36,0-.54C1454,82.09,1425.94,58.07,1419.79,27.21Z"/><path class="cls-3" d="M1419.79,27.21c-.34-1.68-.62-3.38-.83-5.1h-.45c-38.8,0-70.28,28.6-70.51,64C1384.27,82.77,1418.51,78.66,1419.79,27.21Z"/><path class="cls-3" d="M1420.62,22.15c-.2,1.71-.49,3.39-.83,5.06.83,53.09,34.2,54.88,69.22,58.69C1488.7,51.26,1458.39,23.17,1420.62,22.15Z"/><path class="cls-3" d="M1419.79,27.21c.34-1.67.63-3.35.83-5.06l-1.66,0C1419.17,23.83,1419.45,25.53,1419.79,27.21Z"/><ellipse class="cls-4" cx="1418.51" cy="235.95" rx="94.28" ry="108.72"/><ellipse class="cls-3" cx="1420.62" cy="253.72" rx="81.33" ry="90.94"/><path d="M539.7,58.86c0,8.65-5,19.26-16.45,28.13,14.93,9.3,21.42,21.63,21.42,31.37,0,25.1-20.34,41.76-45.65,41.76H418.31V17.32H494C519.36,17.32,539.7,33.76,539.7,58.86Zm-32,0c0-35.27-34.4-36.35-34.4-36.35H450.33V73.79h17.53a134.18,134.18,0,0,1,33.32,3.89C505.29,72.92,507.67,66.86,507.67,58.86Zm-57.34,53.66v42.41h27.92s34.4-1.09,34.4-36.57-51.06-35.7-51.06-35.7H450.33Z"/><path d="M592.49,160.12H560.68V44.36c0-13.41-2.38-21.42-10.6-27h42.41Z"/><path d="M601.14,116.63V98.24c19.47,0,37.43,56.69,61.45,56.69,0,0,28.34,4.76,28.34-19.69,0-12.55-89.79-37-89.79-76.38,0-22.5,18.39-41.54,40.68-41.54H711.7V79.2c-18.82,0-38.08-55.61-60.15-55.61,0,0-29.64-5.41-29.64,19.69,0,14.28,89.79,35.92,89.79,76.38A40.58,40.58,0,0,1,671,160.12H601.14V116.63Z"/><path d="M720.36,128.75V17.32H858V128.75c-34-16.23-17.31-83.52-52.36-107.11V160.12H772.72V21.64C737.67,45.23,754.33,112.52,720.36,128.75Z"/><path d="M988,58.86c0,17.74-21.63,45-76.81,45,0,22.29,42.63,25.75,76.81,11.25v45c-59.71,0-83.08-38.08-83.08-65.13,0,0,51.06-.65,51.06-36.13,0-35.27-34.4-36.35-34.4-36.35H898.64V160.12h-32V17.32h75.73C967.66,17.32,988,33.76,988,58.86Z"/><path d="M996.66,88.5c0-41.11,31.8-74.43,71.18-74.43s71.4,33.32,71.4,74.43c0,41.33-32,74.65-71.4,74.65S996.66,129.83,996.66,88.5Zm70.1,69.67c14.93.22,27.69-30.51,28.13-69,.65-38.51-11-69.89-26-70.1s-27.48,30.5-28.12,69C1040.36,126.37,1051.83,157.74,1066.76,158.17Z"/><path d="M375.8,257.1c0,8.65-5,19.26-16.45,28.13,14.93,9.3,21.42,21.64,21.42,31.37,0,25.1-20.33,41.76-45.65,41.76H254.41V215.56h75.73C355.46,215.56,375.8,232,375.8,257.1Zm-32,0c0-35.27-34.4-36.35-34.4-36.35H286.44V272H304a134.18,134.18,0,0,1,33.32,3.89C341.39,271.16,343.77,265.11,343.77,257.1Zm-57.33,53.66v42.41h27.91s34.4-1.08,34.4-36.57-51.06-35.7-51.06-35.7H286.44Z"/><path d="M411.93,215.56h67.72l29.21,142.8H473.81L447.85,221c-36.57,35.7-22.07,118.13-18.61,137.39H382.93Z"/><path d="M638.9,257.1c0,8.65-5,19.26-16.45,28.13,14.93,9.3,21.42,21.64,21.42,31.37,0,25.1-20.33,41.76-45.65,41.76H517.51V215.56h75.73C618.56,215.56,638.9,232,638.9,257.1Zm-32,0c0-35.27-34.4-36.35-34.4-36.35H549.54V272h17.52a134.12,134.12,0,0,1,33.32,3.89C604.49,271.16,606.87,265.11,606.87,257.1Zm-57.33,53.66v42.41h27.91s34.4-1.08,34.4-36.57-51.06-35.7-51.06-35.7H549.54Z"/><path d="M648.2,215.56c60.8,0,9.95,87.63,47.82,132.85,5.84,6.27,11.9,9.3,18.61,9.3,6.49,0,12.55-3,18.39-9.3,37.86-45.22-13-132.64,47.82-132.64v71.84c0,40.68-29.65,73.78-66.21,73.78-36.79,0-66.43-33.1-66.43-73.78Z"/><path d="M789.49,314.87V296.48c19.47,0,37.43,56.69,61.45,56.69,0,0,28.34,4.76,28.34-19.69,0-12.55-89.79-37-89.79-76.38,0-22.5,18.39-41.54,40.68-41.54h69.88v61.88c-18.82,0-38.08-55.61-60.15-55.61,0,0-29.64-5.41-29.64,19.69,0,14.28,89.79,35.92,89.79,76.38a40.58,40.58,0,0,1-40.67,40.46H789.49V314.87Z"/><path d="M1009.75,311.41c-35.48-1.08-57.77-15.8-69.24-33.32v80.27h-31.8V215.56h31.8v49.76c10.6,12.34,42.19,13,69.24,2.6V215.56h31.81v142.8h-31.81Z"/><path d="M1168.56,215.56v61.88c-23.58,0-11.68-29-50.41-29-.22,0-7.79,4.32-17.1,9.52l67.51,100.39h-34.83L1082,281.55v76.81h-31.8V215.56H1082v48.68Z"/><path d="M1206.21,215.56h67.72l29.21,142.8h-35.05l-26-137.39c-36.56,35.7-22.07,118.13-18.6,137.39h-46.31Z"/></svg>
